<?xml version="1.0" encoding="utf-8"?>
<svg xmlns="http://www.w3.org/2000/svg" viewBox="40.48 0 13.52 11.04" width="120.281px" height="98.1632px">
  <defs>
    <style type="text/css">
   
    .fil1 {fill:#385280;}
    .fil0 {fill:#385280;fill-rule:nonzero}
   
  </style>
  </defs>
  <path class="fil1" d="M47.24 0l-1.2 2.25c-0.13,0.24 -0.37,0.22 -0.61,0.08l-0.85 -0.45 0.63 3.45c0.13,0.64 -0.3,0.64 -0.51,0.36l-1.48 -1.7 -0.25 0.86c-0.02,0.12 -0.14,0.24 -0.33,0.21l-1.88 -0.41 0.49 1.84c0.11,0.41 0.19,0.58 -0.1,0.69l-0.67 0.32 2.46 2.04c0.31,0.25 0.25,0.78 0.16,1.13 1.38,0.24 2.76,0.37 4.14,0.37 1.37,0 2.75,-0.13 4.13,-0.37 -0.09,-0.35 -0.15,-0.88 0.16,-1.13l2.47 -2.04 -0.68 -0.32c-0.29,-0.11 -0.21,-0.28 -0.1,-0.69l0.49 -1.84 -1.88 0.41c-0.18,0.03 -0.3,-0.09 -0.33,-0.21l-0.24 -0.86 -1.49 1.7c-0.21,0.28 -0.64,0.28 -0.51,-0.36l0.64 -3.45 -0.86 0.45c-0.23,0.14 -0.47,0.16 -0.61,-0.08l-1.19 -2.25zm-2.36 9.74l4.89 0c0.05,0 0.09,-0.05 0.09,-0.1l0 0c0,-0.06 -0.04,-0.09 -0.09,-0.1 -1.65,-0.25 -3.28,-0.26 -4.89,0 -0.05,0.01 -0.09,0.04 -0.09,0.1l0 0c0,0.05 0.04,0.1 0.09,0.1zm-1.53 0.69c-0.01,-0.26 0.1,-0.5 0.29,-0.65 0.13,-1.6 0.99,-2.96 2.2,-3.55 0.46,-0.23 0.64,0.44 0.72,0.97l0.18 0 0 -1.05c0,-0.18 0.13,-0.33 0.29,-0.33l0.45 0c0.16,0 0.29,0.15 0.29,0.33l0 1.05 0.15 0c0.08,-0.53 0.25,-1.2 0.72,-0.97 1.2,0.59 2.07,1.95 2.19,3.55 0.19,0.15 0.3,0.39 0.29,0.65 -1.31,0.12 -2.6,0.19 -3.88,0.19 -1.29,0 -2.58,-0.07 -3.89,-0.19z" transform="matrix(0.9999999999999999, 0, 0, 0.9999999999999999, 8.881784197001252e-16, 0)"/>
</svg>