<?xml version="1.0" encoding="UTF-8"?>
<!DOCTYPE svg PUBLIC "-//W3C//DTD SVG 1.1//EN" "http://www.w3.org/Graphics/SVG/1.1/DTD/svg11.dtd">
<!-- Creator: CorelDRAW 2018 (64-Bit) -->
<svg xmlns="http://www.w3.org/2000/svg" xml:space="preserve" width="545px" height="233px" version="1.1" style="shape-rendering:geometricPrecision; text-rendering:geometricPrecision; image-rendering:optimizeQuality; fill-rule:evenodd; clip-rule:evenodd"
viewBox="0 0 121.04 51.74"
 xmlns:xlink="http://www.w3.org/1999/xlink">
 <defs>
  <style type="text/css">
   <![CDATA[
    .fil1 {fill:rgb(246, 245, 244, 0.9);}
    .fil0 {fill:rgb(246, 245, 244, 0.9);fill-rule:nonzero}
   ]]>
  </style>
 </defs>
 <g id="Слой_x0020_1">
  <metadata id="CorelCorpID_0Corel-Layer"/>
  <g id="_1834395237248">
   <path class="fil0" d="M34.04 4.19c-3.2,2.06 -11.26,8.19 -12.05,12.41 -0.41,2.15 1.64,3.87 3.94,3.05 -1.75,-2.14 -1.49,-5.41 6.62,-12.33 0,0 -1.22,5.01 -1.45,7.65 -0.24,2.64 -0.9,6.44 2.41,7.32 0,0 1.5,-1.16 3.64,-7.08 0,0 0.15,4.63 0.37,6.44 0.2,1.8 0.46,5.11 3.42,4.72 0,0 3.35,-11.97 8.84,-22.12 0,0 -0.69,-2.26 -2.92,-2.1 0,0 -4.89,11.28 -6.87,18.78 0,0 -0.16,-7.84 1.45,-13.93 0,0 -0.52,-1.26 -2.01,-1.11 0,0 -0.78,2.38 -1.08,3.68 0,0 -3.93,7.32 -5.02,8.41 0,0 0.22,-6.55 2.65,-12.21 0,0 -0.95,-1.54 -1.94,-1.58z"/>
   <path class="fil1" d="M58.94 11.46c-0.54,-0.84 -0.08,-1.83 0.99,-2.97 1.09,-1.18 2.32,-0.18 2.14,1 -0.21,1.39 0.35,2.54 2.25,3.16 0.74,0.24 0.75,0.72 0.06,1.41 -1.07,1.08 -2.63,2.76 -3.25,4.32 -0.38,0.94 -0.16,1.73 0.25,2.04 0.5,0.38 1.13,0.31 2.32,-0.55 1.08,-0.78 1.94,-1.62 2.67,-2.67 1.05,-6.77 5.36,-12.94 5.36,-12.94 1.01,-0.08 1.7,0.28 2.16,0.76 -0.3,0.24 -4,6.64 -4.73,8.37 0.51,-0.69 2.86,-2.87 3.28,-3 0.42,-0.16 1.62,0.92 1.62,0.92 0,0 0.9,0.99 -0.09,3.07 -1.04,2.08 -4.88,2.69 -4.88,2.69 1.58,2.17 3.29,2.58 3.29,2.58 0.78,-0.45 3.86,-5.11 3.92,-5.18 0.24,-0.37 0.37,-0.59 0.37,-0.59 0.58,-0.09 0.79,0.32 0.79,0.32 -2.44,4.37 -4.22,6.97 -4.22,6.97 -0.25,0.39 -0.84,0.87 -0.84,0.87 -1.88,0.15 -3.77,-2.55 -4.58,-3.85 -0.37,2.16 -0.23,3.34 -0.23,3.34 -0.77,0.09 -1.43,-0.86 -1.43,-0.86 -0.02,-0.39 -0.02,-0.78 -0.01,-1.17 -0.44,0.5 -0.7,0.74 -1.98,1.6 -1.84,1.23 -3.13,0.58 -3.9,-0.45 -0.63,-0.84 -0.88,-2 -0.69,-2.8 0.33,-1.44 1.79,-2.91 1.45,-3.34 -0.4,-0.5 -0.76,-1.02 -1.12,-1.56 -0.8,1.85 -2.43,3.22 -3.76,3.3 -0.66,2.82 -4.69,8.5 -7.89,5.52 -2.92,-2.71 0.16,-8.33 2.24,-10.35 1.17,-1.12 1.13,-0.87 1.67,-0.56 0.12,0.06 0.17,0.15 0.2,0.25 0.24,-0.2 0.52,-0.33 0.83,-0.38 2.75,-0.43 3.62,1.41 3.29,3.75 0.78,-0.41 2.38,-1.68 2.51,-2.93l-0.06 -0.09zm-4.35 3.13c-1.44,-0.62 -2.02,-2.73 -0.88,-2.27 0.95,0.39 0.93,1.38 0.88,2.27zm-0.22 1.39c-0.11,0.45 -0.28,0.94 -0.53,1.45 -1.17,2.47 -2.72,4.72 -4.02,2.62 -1.22,-1.99 -0.69,-4.56 1.76,-7.54 -0.17,0.99 0.24,2.18 1.66,2.96 0.39,0.22 0.77,0.39 1.13,0.51zm18.16 -3.77c0,0 0.54,2.67 -3.65,4.07 0.76,-1.06 2.17,-2.84 3.65,-4.07z"/>
  </g>
  <path class="fil1" d="M5.86 31.77c-1.72,0.47 -4.82,-0.31 -2.14,-4.59 2.57,-4.1 13.19,-7.69 16.35,-3.45 2.75,3.7 -2.78,8.11 -6.06,9.13 -1.08,0.33 -1.38,0.38 -0.58,1.24 0.79,0.85 0.98,1 2.03,0.52 4.64,-2.13 5.84,-0.22 5.92,1.89 0.12,3.03 -1.52,6.3 -4.08,8.09 -2.03,1.41 -4.64,2.27 -7.29,2.94 0.05,-0.55 0.08,-1.33 0.24,-2.26 0.43,-2.64 0.72,-6.32 0.98,-9.06 0.33,-3.44 0.66,-6.72 1.18,-8.92 0.25,-1.05 0.84,-2.49 0.34,-2.71 -0.7,-0.33 -3.3,1.36 -3.35,2.04 -0.44,5.96 -1.2,14.29 -2.39,17.49 -0.26,0.7 -1.22,1.57 -0.55,2.19 0.81,0.74 1.56,1.09 2.34,1.52 -0.94,0.22 -1.87,0.42 -2.77,0.62 -1.55,0.34 -1.77,2.92 -0.64,3.29 2,-2.18 9.81,-2.07 14.38,-6.31 2.35,-2.19 3.83,-4.44 4.1,-7.22 0.45,-4.6 -1.13,-6.26 -5.1,-6.08 1.16,-1.01 2.21,-1.86 2.85,-2.95 3.78,-6.51 -3.87,-10.37 -9.26,-9.18 -5.49,1.2 -12.58,5.13 -12.35,9.82 0.14,3.16 4.99,5.05 5.85,1.95zm29.22 8.91c0.84,-0.08 0.66,0.43 0.23,0.94 -0.28,0.31 -0.73,0.49 -0.94,0.55 -0.99,0.29 -1.48,-0.84 -1.94,-0.82 -0.54,0.01 -1.36,1.44 -3.12,1.46 -1.95,0.03 -4.48,-2.31 -3.12,-6.78 1.11,-3.62 3.18,-5.75 5.49,-5.47 1.21,0.15 1.7,1.09 1.84,0.61 0.17,-0.62 0.35,-0.93 0.7,-0.98 1.19,-0.17 1.93,0 1.67,1.31 -0.48,2.39 -1.32,5.14 -1.77,7.54 -0.19,1.04 0.14,1.72 0.96,1.64zm-2.16 -7.6c-0.27,-1.69 -2.9,-1.19 -3.9,0.76 -2.76,5.4 0.94,9.92 2.74,5.18 0.32,-0.85 1.3,-5.08 1.16,-5.94zm24.93 2.76c0.78,-0.29 1.75,-0.85 2.81,-1.53 0.24,-3.47 2.9,-6.31 5.1,-6.66 1.42,-0.23 4.72,1.13 3.6,2.53 -0.43,0.55 -1.47,1.12 -2.43,1.75 -1.5,0.99 -2.8,1.81 -4.12,2.57 0.01,1.49 0.42,3.4 2.39,3.44 2.31,0.04 4.11,-2.82 6.68,-6.6 -0.07,-0.09 -0.14,-0.18 -0.22,-0.26 -0.66,-0.82 -0.29,-1.86 0.67,-3.08 1,-1.26 2.38,-0.33 2.34,0.88 -0.06,1.43 0.65,2.57 2.69,3.08 0.8,0.2 0.85,0.69 0.23,1.43 -0.99,1.16 -2.47,2.94 -2.85,4.59 -0.53,2.26 1.02,2.87 2.83,1.36 2.36,-1.97 3.49,-4.93 5.08,-7.09 0.35,-0.49 -0.11,-2.24 1.09,-2.99 0.42,-0.27 1.1,-0.72 1.56,-0.41 1.09,0.74 1.56,1.23 0.73,2.05 -0.84,0.84 -1.17,1.73 -0.72,2.86 0.62,1.55 2.24,3.32 2.56,4.95 0.17,0.84 -0.17,1.79 -0.7,2.59 0.94,0.4 1.92,0.57 3.06,0.18 0.57,-0.2 0.64,-0.43 0.83,-0.48 0.11,-0.03 0.23,0.29 0.16,0.52 -0.46,1.44 -2.21,1.47 -3.04,1.47 -0.83,0.01 -1.5,-0.18 -2.08,-0.47 -1.72,1.46 -5.03,0.18 -5.69,-1.58 -0.47,-1.26 1.38,-2.8 4.07,-1.21 0.61,0.37 1.09,0.7 1.7,1.05 0.29,-0.3 0.51,-0.88 0.09,-1.7 -1.2,-2.34 -2.91,-5.94 -3.35,-5.31 -0.93,1.32 -2,4.58 -4.82,6.77 -2.65,2.07 -5.33,-0.55 -5.03,-3.01 0.25,-1.97 1.51,-3.06 1.11,-3.48 -0.46,-0.47 -0.9,-0.98 -1.32,-1.49 -2.57,3.12 -5.08,6.68 -7.35,6.8 -2.77,0.14 -4.5,-1.03 -4.82,-3.72 -1.04,0.52 -2.04,0.93 -3,1.24 -0.04,0.26 -0.08,0.53 -0.12,0.79 -0.3,1.83 -0.38,4.19 -0.82,6.37 1.85,0.28 3.71,0.63 5.41,0.81 3.07,0.34 5.25,-0.4 6.58,-1.04 0.47,-0.23 1.01,-0.85 0.63,0.56 -0.53,1.97 -2.88,3.03 -5.42,2.78 -2.77,-0.27 -4.13,-1.27 -7.55,-1.72 -0.31,1.05 -0.75,2.02 -1.39,2.82 -0.87,1.11 -3.43,2.21 -6.01,2.37 -2.39,0.15 -4.84,-0.52 -4.91,-2.83 -0.07,-2.59 3.49,-3.87 7.11,-4.12 1.16,-0.08 2.4,-0.01 3.65,0.13 0.18,-1.39 0.24,-2.96 0.43,-4.56 -1.6,1.03 -3.46,0.66 -4.7,-0.51 -2.11,1.1 -3.91,3.1 -5.67,2.11 -0.97,-0.56 -0.28,-4.86 0.63,-8.49 0.46,-1.86 0.36,-1.79 -0.73,-0.96 -2.87,2.22 -4.26,5.37 -4.33,9.38 -0.02,0.88 -0.12,1.81 -1.54,0.64 -0.56,-0.46 -1.23,-0.82 -0.9,-1.86 0.65,-2.03 0.97,-4.16 1.28,-6.27 0.16,-1.11 0.72,-1.4 0.69,-1.62 -0.02,-0.17 -0.81,0.1 -1.2,0.39 -0.52,0.37 -1.18,0.85 -1.2,0.64 -0.07,-0.6 0.23,-1.06 0.6,-1.49 1.13,-1.34 2.92,-1.91 3.46,-1.13 0.49,0.72 0,2.72 0.37,2.34 1.07,-1.06 2.08,-1.88 3.3,-2.81 1.05,-0.8 1.62,-1.13 2.36,-0.41 0.6,0.59 0.64,1.18 0.47,2.07 -0.37,1.95 -0.73,3.58 -1.01,6.06 -0.18,1.56 -0.3,2.12 0.6,1.81 0.74,-0.25 1.43,-0.81 2.03,-1.42 -0.84,-1.6 -0.45,-3.63 -0.37,-4.48 0.49,-4.83 4.96,-5.62 6.37,-4.9 0.24,0.13 0.61,0.49 0.83,0.04 0.39,-0.83 0.35,-1.02 1.02,-0.88 0.24,0.05 1.18,0.42 1.32,0.49 0.37,0.18 0.33,0.11 0.07,0.99 -0.5,1.73 -0.81,4.26 -1.18,6.87zm-1.48 -5.54c-0.16,1.81 -0.43,3.72 -0.63,5.02 -0.21,1.31 -0.16,1.85 -1.17,2.53 -1.89,1.27 -2.84,-0.22 -2.85,-2.29 -0.01,-1.25 0.05,-2.61 0.64,-3.76 1.25,-2.43 2.84,-2.56 4.01,-1.5zm6.55 2.51c1.28,-0.87 2.6,-1.77 3.81,-2.48 1.3,-0.75 0.99,-1.46 -0.37,-1.29 -1.59,0.21 -2.94,1.74 -3.44,3.77zm-8.32 12.44c-0.27,1.12 -0.71,2.04 -1.51,2.65 -0.87,0.67 -2.1,1.22 -3.85,1.41 -1.39,0.14 -2.44,-0.09 -2.9,-0.63 -1.57,-1.87 1.72,-3.35 4.55,-3.45 1.44,-0.06 2.65,-0.04 3.71,0.02zm30.56 -3.31c-0.75,-0.54 -1.34,-1.14 -2.01,-1.36 -1.54,-0.53 -1.98,0.06 -1.35,0.66 0.8,0.74 2.39,1.31 3.36,0.7z"/>
  <path class="fil0" d="M120.78 39.8c-3.71,4.1 -6.12,2.55 -5.54,-0.06 0.35,-1.57 2.22,-4.7 4.34,-4.04 0.78,0.3 0.59,0.91 -0.06,1.93 2.1,-0.61 1.77,-2.62 0.54,-3.1 -1.72,-0.67 -3.57,0.39 -4.76,1.72 -0.87,0.97 -1.79,2.72 -2.04,4.25 -0.65,0.44 -1.4,0.83 -2.11,0.91 -0.78,0.08 -0.57,-0.35 -0.12,-1.58 0.72,-1.95 1.34,-3.21 2.02,-4.72 0.31,-0.7 0.39,-1.18 0.03,-1.77 -0.44,-0.72 -0.96,-0.56 -1.97,-0.1 -1.15,0.52 -2.12,1 -3.19,1.66 -0.38,0.24 0.42,-1.29 0.16,-1.96 -0.18,-0.5 -1.14,-0.39 -1.93,0.18 -0.25,0.17 0.11,0.66 -0.16,1.07 -1.43,2.11 -3.35,4.15 -5.29,5.83 0.81,-2.59 2.66,-7.19 6.82,-14.2 0,0 0.15,-1.95 -1.15,-2.19 -1.94,-0.35 -5.18,-0.25 -9.52,1.49 -2.89,1.17 -3.9,3.43 -3.7,4.84 0.32,2.2 3.07,3.83 4.34,1.79 -4.82,-0.2 -1.56,-6.91 7.47,-6.51 0,0 -5.21,9.28 -7.05,14.75 0,0 0.14,1.66 2.14,2.65 0,0 0.02,-0.09 0.04,-0.3 0.14,0.31 0.31,0.54 0.47,0.58 0.88,-0.55 1.77,-1.55 2.59,-2.66 -0.2,0.59 0.18,0.96 0.49,1.37 0.9,1.2 1.17,0.47 1.36,-0.24 0.86,-3.24 2.59,-5.54 5.34,-6.8 1.03,-0.48 1.13,-0.51 0.39,0.91 -1.46,2.78 -2.87,6.14 -2.2,6.76 1.15,1.09 2.87,-0.03 4.68,-0.57 0.05,0.4 0.18,0.76 0.4,1.05 2.49,3.21 7.89,-1.53 7.17,-2.94z"/>
  <path class="fil1" d="M93.33 0l-2.36 4.44c-0.26,0.48 -0.74,0.44 -1.21,0.17l-1.68 -0.89 1.25 6.82c0.26,1.25 -0.58,1.25 -1,0.71l-2.94 -3.37 -0.47 1.71c-0.06,0.22 -0.3,0.46 -0.66,0.4l-3.72 -0.8 0.98 3.64c0.21,0.81 0.37,1.14 -0.21,1.36l-1.33 0.63 4.86 4.03c0.62,0.49 0.5,1.54 0.32,2.23 2.73,0.48 5.46,0.74 8.17,0.74 2.72,0 5.45,-0.26 8.18,-0.74 -0.18,-0.69 -0.3,-1.74 0.32,-2.23l4.86 -4.03 -1.33 -0.63c-0.58,-0.22 -0.42,-0.55 -0.21,-1.36l0.98 -3.64 -3.72 0.8c-0.36,0.06 -0.6,-0.18 -0.66,-0.4l-0.47 -1.71 -2.94 3.37c-0.42,0.54 -1.26,0.54 -1,-0.71l1.25 -6.82 -1.68 0.89c-0.47,0.27 -0.95,0.31 -1.21,-0.17l-2.37 -4.44zm-4.66 19.24l9.67 0c0.09,0 0.17,-0.09 0.17,-0.2l0 0c0,-0.11 -0.08,-0.18 -0.17,-0.19 -3.26,-0.5 -6.49,-0.51 -9.67,0 -0.1,0.01 -0.18,0.08 -0.18,0.19l0 0c0,0.11 0.08,0.2 0.18,0.2zm-3.01 1.37c-0.02,-0.51 0.2,-0.99 0.57,-1.28 0.25,-3.16 1.95,-5.85 4.34,-7.02 0.92,-0.45 1.26,0.86 1.42,1.91l0.36 0 0 -2.07c0,-0.36 0.26,-0.65 0.58,-0.65l0.89 0c0.31,0 0.58,0.29 0.58,0.65l0 2.07 0.28 0c0.16,-1.05 0.5,-2.36 1.42,-1.91 2.39,1.17 4.09,3.86 4.34,7.02 0.37,0.29 0.59,0.77 0.57,1.28 -2.58,0.24 -5.13,0.37 -7.68,0.37 -2.54,0 -5.09,-0.13 -7.67,-0.37z"/>
 </g>
</svg>
